<?xml version="1.0" encoding="UTF-8"?>
<!-- Generator: Adobe Illustrator 18.0.0, SVG Export Plug-In . SVG Version: 6.00 Build 0)  -->
<!DOCTYPE svg PUBLIC "-//W3C//DTD SVG 1.1//EN" "http://www.w3.org/Graphics/SVG/1.1/DTD/svg11.dtd">
<svg version="1.1" id="Layer_1" xmlns="http://www.w3.org/2000/svg" xmlns:xlink="http://www.w3.org/1999/xlink" x="0px" y="0px" viewBox="0 0 239 239" enable-background="new 0 0 239 239" xml:space="preserve">
<g>
	<rect x="0" y="0.1" fill="#FFFFFF" width="237.7" height="237.7"/>
	<path fill="#999999" d="M237.7,225.9c-2.4-6.7-5-12-8.1-15.1c-17.1-17.1-46.7-15.6-74.5-41c0.2-0.2-6.4-6.4-6.7-6.2v-16   c7.5-10.4,12.4-24.5,15.4-38.6c0.3,0.6,0.7,1.1,1.2,1.2c1.7,0.3,3.9-3.7,4.8-9c0.9-5.1,0.3-9.4-1.4-9.9c2.5-12.3,1.2-32-3.9-47.2   c-5.1-15.4-27.4-21.8-44.6-22.2v0c-0.1,0-0.1,0-0.1,0c-0.3,0-0.5,0-0.8,0c0,0-0.1,0-0.1,0c0,0-0.1,0-0.1,0c-0.3,0-0.5,0-0.8,0   c-0.1,0-0.1,0-0.1,0v0c-17.3,0.5-39.5,6.9-44.6,22.2C68,59.3,66.8,79,69.2,91.3c-1.6,0.6-2.2,4.9-1.4,9.9c0.9,5.3,3.1,9.3,4.8,9   c0.5-0.1,0.9-0.5,1.2-1.2c2.9,14.1,7.9,28.2,15.4,38.6v16c-0.2-0.2-6.8,6-6.7,6.2c-27.8,25.4-57.5,23.9-74.5,41   c-3.1,3-5.7,8.4-8.1,15.1v12h237.7V225.9z"/>
</g>
</svg>